<?xml version="1.0" standalone="no"?>
<!DOCTYPE svg PUBLIC "-//W3C//DTD SVG 20010904//EN"
 "http://www.w3.org/TR/2001/REC-SVG-20010904/DTD/svg10.dtd">
<svg version="1.0" xmlns="http://www.w3.org/2000/svg"
 width="217.000000pt" height="232.000000pt" viewBox="0 0 217.000000 232.000000"
 preserveAspectRatio="xMidYMid meet">
<metadata>
Created by potrace 1.16, written by Peter Selinger 2001-2019
</metadata>
<g transform="translate(0.000000,232.000000) scale(0.100000,-0.100000)"
fill="#000000" stroke="none">
<path d="M595 2001 l-480 -278 -3 -564 -2 -564 22 -14 c60 -38 952 -551 957
-551 3 0 222 125 486 278 l480 278 0 569 0 570 -480 277 c-264 153 -484 278
-490 277 -5 0 -226 -125 -490 -278z m583 -234 c-13 -43 1 -102 35 -150 59 -79
194 -109 265 -58 l34 24 -16 -31 c-44 -86 -184 -105 -275 -38 -92 68 -116 173
-60 265 25 41 32 37 17 -12z m-180 -44 c-36 -92 4 -228 90 -304 60 -52 103
-74 178 -90 50 -10 67 -10 116 5 31 9 77 32 102 51 25 19 46 32 46 28 0 -24
-57 -95 -97 -121 -182 -115 -426 -28 -498 177 -30 88 -17 173 42 262 31 48 41
44 21 -8z m-224 -93 c-16 -61 -16 -157 1 -210 36 -116 141 -233 258 -289 141
-67 329 -50 430 40 55 48 59 41 15 -25 -40 -62 -113 -119 -183 -145 -80 -30
-241 -30 -316 1 -175 71 -309 254 -309 423 0 51 23 138 46 173 17 27 68 90 71
88 1 -1 -5 -26 -13 -56z m41 -656 c35 -16 65 -65 65 -106 0 -14 -9 -50 -19
-81 -17 -47 -17 -57 -5 -57 8 0 14 -9 14 -22 0 -47 -10 -50 -133 -46 -109 3
-118 5 -142 29 -34 33 -41 84 -21 151 27 95 86 148 164 148 24 0 59 -7 77 -16z
m1065 -19 c0 -3 -37 -53 -82 -111 -44 -58 -87 -122 -94 -142 -11 -34 -16 -37
-53 -40 -41 -3 -42 -3 -35 25 4 15 8 29 9 31 2 2 -5 30 -15 63 l-18 59 43 0
c34 0 44 -4 47 -17 2 -12 20 7 57 60 53 76 54 77 97 77 24 0 44 -2 44 -5z
m-497 -53 c12 -10 17 -30 17 -63 0 -78 -1 -79 -96 -79 -70 0 -82 -2 -78 -15 5
-11 23 -15 74 -15 38 0 71 -3 73 -8 3 -4 3 -19 0 -35 -5 -27 -6 -27 -84 -27
-123 0 -147 20 -137 113 6 55 35 115 62 129 54 29 135 30 169 0z m-383 9 c0
-5 -7 -42 -15 -82 -19 -89 -15 -101 27 -97 33 3 33 3 53 96 l19 92 37 0 37 0
-27 -127 -27 -128 -78 -3 c-124 -5 -146 22 -120 147 24 117 21 111 59 111 19
0 35 -4 35 -9z m660 -10 c23 -45 15 -51 -68 -51 l-79 0 -18 -95 -19 -95 -38 0
c-35 0 -38 2 -33 23 3 12 14 65 25 117 11 52 22 101 25 108 3 8 32 12 99 12
84 0 97 -2 106 -19z m-1120 -71 c0 -26 -44 -208 -56 -232 -16 -31 -43 -41 -96
-36 -34 3 -34 4 -26 36 6 22 14 32 28 32 26 0 35 19 56 123 l18 87 38 0 c21 0
38 -4 38 -10z"/>
<path d="M702 910 c-28 -12 -52 -66 -52 -119 0 -48 21 -64 78 -59 33 3 37 7
48 43 26 91 26 103 5 124 -23 23 -43 25 -79 11z"/>
</g>
</svg>
